<svg width="168" height="32" viewBox="0 0 168 32" fill="none" xmlns="http://www.w3.org/2000/svg">
    <path d="m16 0 3.592 11.056h11.625l-9.405 6.833 3.593 11.055L16 22.112l-9.405 6.832 3.593-11.055-9.405-6.833h11.625L16 0zM50 0l3.592 11.056h11.625l-9.405 6.833 3.593 11.055L50 22.112l-9.405 6.832 3.593-11.055-9.405-6.833h11.625L50 0zM84 0l3.592 11.056h11.625l-9.405 6.833 3.593 11.055L84 22.112l-9.405 6.832 3.593-11.055-9.405-6.833h11.625L84 0zM118 0l3.592 11.056h11.625l-9.405 6.833 3.593 11.055L118 22.112l-9.405 6.832 3.593-11.055-9.405-6.833h11.625L118 0zM152 0l3.592 11.056h11.625l-9.405 6.833 3.593 11.055L152 22.112l-9.405 6.832 3.593-11.055-9.405-6.833h11.625L152 0z" fill="#00A0DF"/>
</svg>
