<svg width="30" height="150" viewBox="0 0 30 150" fill="none" xmlns="http://www.w3.org/2000/svg">
<g clip-path="url(#clip0_9_15)">
<path d="M9.61594 2.09092C8.23274 2.15618 7.28816 2.37692 6.4624 2.7014C5.60778 3.03446 4.88342 3.4814 4.1627 4.20472C3.44198 4.92804 2.99816 5.65292 2.66744 6.50884C2.34738 7.33642 2.13054 8.28178 2.06944 9.66576C2.00834 11.0497 1.99482 11.4946 2.00158 15.0249C2.00834 18.5552 2.02394 18.9977 2.09102 20.3845C2.15706 21.7675 2.37702 22.7118 2.7015 23.5378C3.03508 24.3924 3.4815 25.1165 4.20508 25.8375C4.92866 26.5585 5.65302 27.0013 6.51102 27.3325C7.33782 27.652 8.28344 27.8699 9.66716 27.9305C11.0509 27.9911 11.4963 28.0051 15.0255 27.9984C18.5547 27.9916 18.9991 27.976 20.3857 27.9102C21.7722 27.8444 22.7116 27.6229 23.5379 27.3C24.3925 26.9656 25.1171 26.52 25.8376 25.7962C26.5581 25.0723 27.0016 24.3469 27.3321 23.4905C27.6524 22.6637 27.87 21.7181 27.9301 20.3354C27.9907 18.9478 28.005 18.5047 27.9982 14.975C27.9914 11.4452 27.9756 11.0027 27.9098 9.61636C27.844 8.23004 27.6238 7.28858 27.2996 6.46204C26.9655 5.60742 26.5196 4.88384 25.7963 4.16234C25.0729 3.44084 24.347 2.99754 23.4908 2.66786C22.6635 2.3478 21.7184 2.12966 20.3347 2.06986C18.951 2.01006 18.5056 1.99472 14.9751 2.00148C11.4445 2.00824 11.0025 2.02332 9.61594 2.09092ZM9.76778 25.5918C8.50028 25.5367 7.81206 25.3261 7.35342 25.1498C6.74606 24.9158 6.31342 24.6329 5.85634 24.1803C5.39926 23.7276 5.11846 23.2934 4.88134 22.6873C4.70324 22.2287 4.48874 21.5413 4.42946 20.2738C4.36498 18.9038 4.35146 18.4925 4.34392 15.0218C4.33638 11.551 4.34964 11.1402 4.4097 9.76976C4.46378 8.5033 4.67568 7.8143 4.8517 7.35592C5.0857 6.74778 5.36754 6.31592 5.82124 5.8591C6.27494 5.40228 6.70784 5.12096 7.31442 4.88384C7.77254 4.70496 8.45998 4.49228 9.72696 4.43196C11.0979 4.36696 11.5087 4.35396 14.979 4.34642C18.4492 4.33888 18.861 4.35188 20.2325 4.4122C21.499 4.46732 22.1882 4.67714 22.6461 4.8542C23.2537 5.0882 23.6861 5.36926 24.1429 5.82374C24.5997 6.27822 24.8813 6.70956 25.1184 7.31744C25.2976 7.77426 25.5103 8.46144 25.5701 9.7292C25.6353 11.1002 25.6501 11.5112 25.6564 14.9812C25.6626 18.4512 25.6504 18.8633 25.5903 20.2332C25.535 21.5007 25.3249 22.1892 25.1483 22.6483C24.9143 23.2554 24.6322 23.6883 24.1783 24.1449C23.7243 24.6015 23.2919 24.8828 22.6851 25.1199C22.2275 25.2985 21.5393 25.5117 20.2733 25.572C18.9024 25.6365 18.4916 25.65 15.02 25.6576C11.5485 25.6651 11.139 25.6511 9.76804 25.5918M20.3656 8.05194C20.3662 8.3605 20.4582 8.66198 20.63 8.91824C20.8019 9.17451 21.0459 9.37405 21.3312 9.49163C21.6165 9.60921 21.9302 9.63955 22.2327 9.57881C22.5352 9.51807 22.813 9.36898 23.0307 9.1504C23.2485 8.93181 23.3966 8.65355 23.4562 8.35081C23.5159 8.04806 23.4844 7.73444 23.3657 7.44959C23.2471 7.16474 23.0467 6.92147 22.7898 6.75055C22.5329 6.57962 22.2311 6.48872 21.9225 6.48934C21.5089 6.49017 21.1125 6.65524 20.8205 6.94827C20.5286 7.2413 20.365 7.63829 20.3656 8.05194ZM8.32504 15.0129C8.33232 18.6997 11.3265 21.6817 15.0125 21.6746C18.6985 21.6676 21.6825 18.6737 21.6755 14.9869C21.6685 11.3001 18.6736 8.3174 14.987 8.32468C11.3005 8.33196 8.31802 11.3266 8.32504 15.0129ZM10.6666 15.0082C10.6649 14.1512 10.9174 13.3128 11.3921 12.5993C11.8669 11.8857 12.5426 11.329 13.3338 10.9994C14.1249 10.6698 14.9961 10.5823 15.837 10.7478C16.6779 10.9134 17.4509 11.3246 18.0581 11.9294C18.6654 12.5343 19.0796 13.3056 19.2485 14.1458C19.4174 14.9861 19.3333 15.8576 19.0068 16.6501C18.6804 17.4425 18.1263 18.1204 17.4147 18.598C16.703 19.0756 15.8657 19.3314 15.0086 19.3331C14.4395 19.3343 13.8758 19.2234 13.3495 19.0066C12.8233 18.7899 12.3449 18.4717 11.9417 18.0701C11.5385 17.6685 11.2184 17.1914 10.9996 16.666C10.7808 16.1406 10.6677 15.5773 10.6666 15.0082Z" fill="#B1B5BD"/>
</g>
<path d="M12.4963 57.9374C12.0416 57.9374 11.5868 57.9374 11.1321 57.9374C11.0664 57.9222 11.0058 57.897 10.9401 57.8919C7.56481 57.5332 4.69482 54.9714 3.95712 51.6467C3.85606 51.192 3.82069 50.7221 3.755 50.2572C3.755 49.8884 3.755 49.5145 3.755 49.1456C3.77016 49.0799 3.79037 49.0142 3.80048 48.9485C3.90154 47.9633 4.1946 47.0386 4.63419 46.1594C6.14498 43.1379 9.54045 41.3492 12.8905 41.7989C13.1178 41.8292 13.2037 41.8949 13.1987 42.1374C13.1734 43.0823 13.1734 44.0221 13.1684 44.967C13.1633 45.5127 13.1684 46.0584 13.1684 46.6344C13.0117 46.599 12.8955 46.5687 12.7844 46.5434C10.2125 45.9523 7.87303 48.0593 8.29747 50.7322C8.52484 52.152 9.68193 53.395 11.1018 53.688C12.5671 53.9912 13.9819 53.4758 14.8712 52.253C15.1996 51.8033 15.4775 51.3233 15.4876 50.7322C15.4977 49.8227 15.5432 48.9132 15.5432 48.0037C15.5533 43.3147 15.5533 38.6258 15.5583 33.9318C15.5583 33.3103 15.5735 32.6888 15.5836 32.0623C16.9832 32.0623 18.3778 32.0623 19.7774 32.0623C19.7875 32.1633 19.7976 32.2644 19.8077 32.3654C19.9442 33.7701 20.3736 35.0686 21.3034 36.155C22.5969 37.6759 24.335 38.267 26.245 38.4792C26.245 39.9294 26.245 41.3745 26.245 42.8246C23.9712 42.764 21.8895 42.1021 19.9745 40.7782C19.9745 40.9298 19.9745 41.0107 19.9745 41.0966C19.9694 43.6027 19.9745 46.1089 19.9593 48.6201C19.9543 49.3679 19.9543 50.1208 19.8734 50.8635C19.5046 54.1125 17.0338 56.9016 13.8606 57.6847C13.4058 57.7959 12.9511 57.8565 12.4963 57.9374Z" fill="#B1B5BD"/>
<path d="M29.0855 75.0856C29.0855 67.3063 22.7792 61 15 61C7.22074 61 0.914429 67.3063 0.914429 75.0856C0.914429 82.1161 6.06531 87.9433 12.7991 89V79.1572H9.22272V75.0856H12.7991V71.9823C12.7991 68.4521 14.902 66.5022 18.1194 66.5022C19.6605 66.5022 21.2725 66.7773 21.2725 66.7773V70.2436H19.4963C17.7465 70.2436 17.2009 71.3294 17.2009 72.4433V75.0856H21.1074L20.4829 79.1572H17.2009V89C23.9347 87.9433 29.0855 82.1161 29.0855 75.0856Z" fill="#B1B5BD"/>
<path d="M15 91C7.2685 91 1 97.2685 1 105C1 110.931 4.69017 115.997 9.89817 118.036C9.77567 116.929 9.66483 115.229 9.94717 114.021C10.2015 112.929 11.5887 107.062 11.5887 107.062C11.5887 107.062 11.1698 106.223 11.1698 104.984C11.1698 103.036 12.298 101.584 13.7027 101.584C14.8973 101.584 15.4737 102.481 15.4737 103.556C15.4737 104.757 14.7095 106.553 14.314 108.216C13.9838 109.611 15.0128 110.747 16.3872 110.747C18.8757 110.747 20.7878 108.123 20.7878 104.336C20.7878 100.984 18.3798 98.6405 14.9405 98.6405C10.9575 98.6405 8.6195 101.628 8.6195 104.716C8.6195 105.919 9.08267 107.21 9.66133 107.912C9.71076 107.965 9.74566 108.03 9.76263 108.1C9.7796 108.17 9.77806 108.244 9.75817 108.313C9.652 108.755 9.41633 109.706 9.36967 109.901C9.309 110.158 9.16667 110.212 8.90183 110.088C7.153 109.273 6.05983 106.717 6.05983 104.664C6.05983 100.248 9.26817 96.1917 15.3103 96.1917C20.1672 96.1917 23.9413 99.652 23.9413 104.278C23.9413 109.103 20.8987 112.986 16.6765 112.986C15.2578 112.986 13.9243 112.248 13.4682 111.378C13.4682 111.378 12.7658 114.051 12.5955 114.707C12.2793 115.922 11.4265 117.447 10.8548 118.377C12.165 118.781 13.5568 119 15 119C22.7315 119 29 112.731 29 105C29 97.2685 22.7315 91 15 91Z" fill="#B1B5BD"/>
<path d="M14.7832 124.51C18.4515 124.584 21.9129 124.557 25.361 124.924C26.2547 125.017 27.1484 125.137 27.9154 125.704C28.6891 126.278 29.2493 127.005 29.396 127.959C29.6094 129.353 29.8095 130.753 29.8962 132.154C30.0896 135.108 30.023 138.069 29.6094 141.004C29.4894 141.851 29.3427 142.698 28.8024 143.412C28.2022 144.212 27.4485 144.792 26.4415 144.899C24.6407 145.092 22.84 145.286 21.0325 145.359C16.0971 145.559 11.1617 145.539 6.22634 145.226C5.33263 145.166 4.43226 145.066 3.54522 144.899C1.97123 144.599 0.930791 143.625 0.623996 142.064C0.350548 140.677 0.197151 139.25 0.103779 137.836C-0.0896351 134.888 -0.0229413 131.947 0.390565 129.019C0.530623 128.012 0.737378 127.018 1.47769 126.245C2.03125 125.664 2.67819 125.264 3.47185 125.111C5.32596 124.757 7.20675 124.697 9.08087 124.637C11.0617 124.577 13.0292 124.551 14.7832 124.51ZM12.0154 130.5C12.0154 133.541 12.0154 136.495 12.0154 139.53C14.6365 138.016 17.2043 136.535 19.832 135.015C17.1976 133.488 14.6365 132.014 12.0154 130.5Z" fill="#B1B5BD"/>
<defs>
<clipPath id="clip0_9_15">
<rect width="26" height="26" fill="white" transform="translate(2 2)"/>
</clipPath>
</defs>
</svg>
